PathFileType	4	(X/Y/Z)	/tmp/tmpw5mnwk_y/Me_1/MarkerData/random_segment_0.trc
DataRate	CameraRate	NumFrames	NumMarkers	Units	OrigDataRate	OrigDataStartFrame	OrigNumFrames
100.089	100.089	10	38	m	100.089	563	1126
Frame#	Time	C7			CLAV			LANK			LASI			LBHD			LELB			LFHD			LFIN			LFRM			LHEE			LKNE			LPSI			LSHO			LTHI			LTIB			LTOE			LUPA			LWRA			LWRB			RANK			RBAK			RBHD			RELB			RFHD			RFIN			RFRM			RHEE			RKNE			RPSI			RSHO			RTHI			RTIB			RTOE			RUPA			RWRA			RWRB			STRN			T10		
		X1	Y1	Z1	X2	Y2	Z2	X3	Y3	Z3	X4	Y4	Z4	X5	Y5	Z5	X6	Y6	Z6	X7	Y7	Z7	X8	Y8	Z8	X9	Y9	Z9	X10	Y10	Z10	X11	Y11	Z11	X12	Y12	Z12	X13	Y13	Z13	X14	Y14	Z14	X15	Y15	Z15	X16	Y16	Z16	X17	Y17	Z17	X18	Y18	Z18	X19	Y19	Z19	X20	Y20	Z20	X21	Y21	Z21	X22	Y22	Z22	X23	Y23	Z23	X24	Y24	Z24	X25	Y25	Z25	X26	Y26	Z26	X27	Y27	Z27	X28	Y28	Z28	X29	Y29	Z29	X30	Y30	Z30	X31	Y31	Z31	X32	Y32	Z32	X33	Y33	Z33	X34	Y34	Z34	X35	Y35	Z35	X36	Y36	Z36	X37	Y37	Z37	X38	Y38	Z38

564	5.625	-0.137555	1.4706	0.00114947	-0.294978	1.37685	-0.00261467	-0.167743	0.143742	0.22517	-0.198209	0.999669	0.16926	-0.25079	1.61392	0.0792806	-0.267517	1.12992	0.314295	-0.373628	1.64547	0.042808	-0.53932	1.11963	0.133853	-0.388353	1.0705	0.23644	-0.0931415	0.134175	0.159382	-0.3301	0.511094	0.231211	-0.0552373	1.01407	0.0521754	-0.214991	1.4491	0.173274	-0.278161	0.695515	0.228671	-0.211258	0.293203	0.242211	-0.318378	0.0642593	0.181165	-0.236234	1.29671	0.276838	-0.43505	1.11553	0.142767	-0.467929	1.07544	0.193041	-0.115716	0.0973138	-0.112018	-0.0703122	1.34398	-0.111769	-0.223671	1.60722	-0.0681589	-0.148661	1.12869	-0.299834	-0.344588	1.63153	-0.0829445	-0.294301	0.814927	-0.270947	-0.167421	1.03941	-0.302941	-0.0560619	0.0602961	-0.0336899	-0.174625	0.499564	-0.139901	-0.0534841	1.01021	-0.012348	-0.211491	1.44063	-0.175297	-0.1988	0.829965	-0.177345	-0.120529	0.378885	-0.15159	-0.285723	0.0604359	-0.100744	-0.170168	1.22178	-0.27397	-0.258475	0.914572	-0.224197	-0.226126	0.883351	-0.28093	-0.320492	1.21902	-0.0015522	-0.0706847	1.24829	0.0166256
565	5.63499	-0.137979	1.47057	-0.00389831	-0.295115	1.37569	-0.00656804	-0.17382	0.151178	0.226427	-0.195718	1.00042	0.165973	-0.251728	1.61328	0.0746038	-0.261392	1.12912	0.310879	-0.374793	1.6443	0.0383504	-0.536436	1.11564	0.135968	-0.382877	1.06816	0.235196	-0.0994576	0.145557	0.160929	-0.33959	0.517054	0.231045	-0.0532651	1.01378	0.0480171	-0.21444	1.44874	0.168821	-0.283573	0.700124	0.227546	-0.218874	0.300235	0.242711	-0.32243	0.0653619	0.182811	-0.232807	1.29601	0.272754	-0.431983	1.11279	0.142535	-0.463251	1.07222	0.193184	-0.115686	0.0971879	-0.111919	-0.0710923	1.34452	-0.117472	-0.224888	1.60648	-0.0728131	-0.14718	1.12826	-0.304023	-0.345865	1.6303	-0.0874585	-0.286817	0.811324	-0.278282	-0.164324	1.03863	-0.307664	-0.0560657	0.0602349	-0.0337156	-0.173109	0.498978	-0.141098	-0.0517272	1.00986	-0.0163285	-0.213266	1.43968	-0.179655	-0.197434	0.829166	-0.180303	-0.119485	0.378117	-0.15253	-0.285776	0.060358	-0.100652	-0.170238	1.22108	-0.278106	-0.253354	0.911314	-0.230363	-0.219973	0.881398	-0.287123	-0.319905	1.21784	-0.00552104	-0.0699972	1.24854	0.0109645
566	5.64498	-0.138299	1.47059	-0.00875638	-0.295231	1.37465	-0.0102765	-0.17895	0.159035	0.227223	-0.193222	1.00126	0.162843	-0.25263	1.61282	0.0700722	-0.255457	1.12833	0.307468	-0.375925	1.6432	0.033968	-0.533398	1.11193	0.137776	-0.377489	1.06599	0.233742	-0.105309	0.156871	0.16166	-0.349071	0.523404	0.23044	-0.0511946	1.01339	0.0439796	-0.213648	1.4484	0.164657	-0.2886	0.704926	0.226143	-0.226421	0.307629	0.242943	-0.326422	0.0671899	0.184674	-0.229405	1.29529	0.268848	-0.428719	1.11012	0.142015	-0.458531	1.06927	0.193116	-0.115703	0.0971051	-0.111799	-0.0718536	1.345	-0.123047	-0.225976	1.60586	-0.0773003	-0.145913	1.12779	-0.308193	-0.347061	1.62911	-0.0918715	-0.27949	0.807973	-0.285391	-0.161336	1.03785	-0.312346	-0.056068	0.0602124	-0.0336836	-0.171839	0.498428	-0.142101	-0.0499164	1.00936	-0.0202292	-0.214893	1.43862	-0.183805	-0.196309	0.828432	-0.182873	-0.118663	0.377422	-0.153321	-0.285837	0.0603002	-0.100569	-0.170417	1.22033	-0.28208	-0.248308	0.908122	-0.236453	-0.214226	0.879419	-0.293208	-0.3193	1.21666	-0.00923603	-0.0694733	1.24871	0.00513256
567	5.65497	-0.138557	1.47071	-0.0133686	-0.29528	1.37381	-0.0137274	-0.182606	0.167811	0.227239	-0.190709	1.00225	0.159899	-0.25355	1.61258	0.065724	-0.249693	1.12748	0.304103	-0.377013	1.6422	0.0296452	-0.530226	1.10856	0.139223	-0.372243	1.06406	0.232178	-0.110101	0.168147	0.161114	-0.35871	0.530123	0.229398	-0.0491062	1.01293	0.0401291	-0.212656	1.44809	0.160801	-0.293283	0.709864	0.224521	-0.233595	0.31552	0.242831	-0.329069	0.0705053	0.186367	-0.226151	1.29468	0.265137	-0.425377	1.1077	0.141244	-0.45393	1.06673	0.192965	-0.115749	0.097071	-0.111691	-0.0725666	1.34542	-0.128356	-0.22696	1.60541	-0.0816148	-0.144723	1.1273	-0.312256	-0.348169	1.628	-0.0961655	-0.2723	0.804861	-0.2924	-0.158505	1.0371	-0.316965	-0.0560916	0.0601694	-0.0336195	-0.170852	0.497954	-0.142887	-0.0480404	1.00877	-0.0239756	-0.216303	1.43758	-0.187716	-0.195258	0.82773	-0.185159	-0.118114	0.376788	-0.153973	-0.285903	0.0602478	-0.1005	-0.170646	1.21968	-0.285957	-0.243354	0.905033	-0.242497	-0.208436	0.877518	-0.299246	-0.318724	1.21564	-0.0126302	-0.0689914	1.24886	-0.000732028
568	5.66496	-0.138761	1.47097	-0.0176631	-0.295198	1.37319	-0.0169538	-0.184429	0.178168	0.226299	-0.188252	1.0034	0.1571	-0.254414	1.61249	0.0616212	-0.244059	1.1267	0.300675	-0.378073	1.64133	0.0254499	-0.52689	1.10558	0.140288	-0.367099	1.06243	0.230556	-0.113072	0.179531	0.159183	-0.368569	0.537168	0.22805	-0.0471098	1.01246	0.0365088	-0.211567	1.44785	0.157222	-0.297663	0.714884	0.222797	-0.239989	0.324161	0.242068	-0.329642	0.0768207	0.187489	-0.223043	1.29423	0.261562	-0.421996	1.10559	0.140313	-0.44942	1.06456	0.192679	-0.115784	0.0970599	-0.1116	-0.073134	1.34578	-0.133315	-0.227832	1.60507	-0.0857559	-0.14362	1.1268	-0.31612	-0.349163	1.62695	-0.100318	-0.265038	0.801937	-0.299555	-0.155807	1.03645	-0.321496	-0.0561346	0.0601364	-0.0335491	-0.170113	0.497628	-0.143674	-0.0461461	1.00817	-0.0275225	-0.217404	1.43666	-0.191378	-0.19434	0.827088	-0.187018	-0.117777	0.376223	-0.154565	-0.285949	0.0601952	-0.100459	-0.170854	1.2191	-0.289582	-0.238468	0.902071	-0.248471	-0.202671	0.875726	-0.305271	-0.318105	1.21485	-0.0156313	-0.0684693	1.24907	-0.0064043
569	5.67496	-0.138934	1.47138	-0.0215824	-0.294986	1.37277	-0.0200221	-0.184229	0.190595	0.224148	-0.185754	1.00471	0.154303	-0.255308	1.61251	0.0575592	-0.238483	1.12611	0.297134	-0.379096	1.6406	0.0213935	-0.523403	1.10299	0.140967	-0.362049	1.06115	0.228869	-0.113815	0.191886	0.156004	-0.378535	0.544532	0.2266	-0.0452398	1.01206	0.0331473	-0.21064	1.44784	0.15392	-0.301839	0.719906	0.221068	-0.245277	0.333807	0.240385	-0.328394	0.0867932	0.187956	-0.220161	1.29401	0.258047	-0.418508	1.10379	0.139294	-0.444885	1.06277	0.192211	-0.115806	0.0970604	-0.111535	-0.0734647	1.34614	-0.137794	-0.228612	1.6048	-0.0897209	-0.142666	1.12639	-0.319709	-0.350058	1.62596	-0.104361	-0.258163	0.799173	-0.306524	-0.153227	1.03589	-0.32588	-0.0561798	0.0601279	-0.0335001	-0.169617	0.497466	-0.144604	-0.0443236	1.00761	-0.03079	-0.218097	1.43597	-0.194811	-0.19343	0.826605	-0.188705	-0.117566	0.375836	-0.155255	-0.285981	0.0601711	-0.100432	-0.171011	1.2186	-0.292932	-0.233658	0.899259	-0.254345	-0.197128	0.874058	-0.31131	-0.317295	1.21432	-0.0181779	-0.0676837	1.24939	-0.0114836
570	5.68495	-0.139181	1.4718	-0.0250958	-0.294659	1.37251	-0.0229711	-0.182315	0.205169	0.220961	-0.183446	1.00605	0.151602	-0.256155	1.61259	0.0536562	-0.233035	1.12574	0.293615	-0.380028	1.63996	0.0174875	-0.519834	1.1008	0.141276	-0.357038	1.0602	0.227072	-0.112418	0.206135	0.151893	-0.388513	0.552269	0.225071	-0.0435262	1.01186	0.030058	-0.209948	1.44804	0.150818	-0.305903	0.724885	0.219401	-0.249221	0.344713	0.237898	-0.325369	0.0996521	0.188036	-0.217505	1.29402	0.254655	-0.414919	1.1023	0.138226	-0.440253	1.06134	0.191512	-0.115814	0.0970578	-0.111527	-0.0734886	1.34655	-0.141688	-0.22928	1.60456	-0.0934733	-0.141791	1.12612	-0.323005	-0.35084	1.62505	-0.108245	-0.251621	0.79685	-0.313279	-0.150914	1.03552	-0.32989	-0.0562113	0.0601305	-0.0334847	-0.169321	0.49739	-0.145598	-0.0426167	1.00714	-0.0336967	-0.218346	1.43552	-0.198072	-0.192538	0.826324	-0.190287	-0.117468	0.375549	-0.156034	-0.286028	0.0601692	-0.100405	-0.171053	1.21822	-0.296006	-0.228962	0.896637	-0.260028	-0.191921	0.872604	-0.317334	-0.316268	1.2141	-0.0202608	-0.0665637	1.24988	-0.0156383
571	5.69494	-0.139389	1.47219	-0.0282775	-0.294273	1.37233	-0.0258035	-0.178949	0.221647	0.217126	-0.181477	1.00733	0.149053	-0.256858	1.61275	0.0500668	-0.227694	1.12563	0.290138	-0.380852	1.6394	0.0137146	-0.516214	1.09898	0.141269	-0.352049	1.05955	0.225167	-0.109491	0.222723	0.147054	-0.398425	0.560455	0.223529	-0.0420383	1.01194	0.0272828	-0.209401	1.44836	0.147797	-0.309939	0.730057	0.217626	-0.251775	0.357328	0.234881	-0.320387	0.113995	0.187887	-0.214972	1.29416	0.251464	-0.41131	1.10122	0.13709	-0.435747	1.06028	0.190737	-0.115827	0.097065	-0.111565	-0.0731903	1.34701	-0.144952	-0.229851	1.60436	-0.0970193	-0.140942	1.12601	-0.326056	-0.35153	1.62424	-0.111951	-0.245105	0.795023	-0.320132	-0.148723	1.03538	-0.333685	-0.0562331	0.0601413	-0.0334749	-0.169201	0.497323	-0.146606	-0.0410589	1.00684	-0.0362535	-0.218197	1.4353	-0.201152	-0.19174	0.82633	-0.191974	-0.117464	0.3753	-0.156813	-0.286061	0.0601747	-0.100373	-0.170966	1.21793	-0.298786	-0.224431	0.894305	-0.26545	-0.186679	0.871651	-0.323199	-0.315517	1.21398	-0.0221325	-0.0652692	1.25058	-0.0190667
572	5.70493	-0.139469	1.47254	-0.0311773	-0.293869	1.3722	-0.0285644	-0.174491	0.239941	0.212846	-0.179879	1.00848	0.146608	-0.257411	1.61293	0.0467652	-0.222429	1.12575	0.286702	-0.381539	1.63892	0.0100892	-0.512536	1.0975	0.141031	-0.34711	1.05912	0.223161	-0.10554	0.24219	0.141683	-0.407962	0.569116	0.222098	-0.0408061	1.0123	0.0248374	-0.209051	1.4488	0.144852	-0.314175	0.735649	0.215602	-0.253203	0.371744	0.231463	-0.313263	0.128744	0.187318	-0.212605	1.29447	0.248416	-0.407636	1.10053	0.135882	-0.43136	1.05956	0.189881	-0.115848	0.0970713	-0.111587	-0.0725229	1.34744	-0.147587	-0.230366	1.60419	-0.100444	-0.140206	1.12615	-0.329001	-0.352125	1.62351	-0.115479	-0.238644	0.79342	-0.326968	-0.146555	1.03547	-0.337319	-0.0562139	0.0601906	-0.0334393	-0.169198	0.497267	-0.147642	-0.0396501	1.00677	-0.0384742	-0.217681	1.43522	-0.204086	-0.191	0.826299	-0.193604	-0.117578	0.375097	-0.15756	-0.286085	0.0601759	-0.100356	-0.170674	1.21774	-0.301295	-0.219886	0.892356	-0.270816	-0.18164	0.871079	-0.328964	-0.314932	1.21388	-0.0238946	-0.0640995	1.25138	-0.0220493
573	5.71492	-0.139481	1.47281	-0.0338775	-0.293481	1.37212	-0.0312565	-0.169275	0.260027	0.208151	-0.17869	1.0095	0.144271	-0.25797	1.61314	0.0433456	-0.217272	1.12605	0.283301	-0.382131	1.63856	0.00666292	-0.508835	1.09636	0.140572	-0.342227	1.0589	0.221019	-0.101052	0.264225	0.135978	-0.417086	0.578301	0.220578	-0.0397967	1.01282	0.0227505	-0.208821	1.44929	0.141979	-0.318851	0.741861	0.213255	-0.253691	0.387719	0.227635	-0.304112	0.143953	0.185937	-0.210382	1.29494	0.245499	-0.403948	1.10021	0.134575	-0.426907	1.05908	0.188767	-0.115873	0.0970808	-0.111591	-0.0715051	1.34784	-0.149664	-0.230774	1.60408	-0.103722	-0.139336	1.12641	-0.331683	-0.352627	1.62289	-0.118829	-0.232422	0.792153	-0.333521	-0.144347	1.03576	-0.340814	-0.0561308	0.0602899	-0.0333663	-0.169313	0.49722	-0.148712	-0.0383921	1.00691	-0.0403884	-0.216902	1.43529	-0.206887	-0.190274	0.826182	-0.19514	-0.117811	0.374938	-0.158326	-0.286102	0.0601784	-0.100349	-0.170061	1.21772	-0.303703	-0.215113	0.890845	-0.276451	-0.176801	0.870756	-0.334652	-0.314393	1.21382	-0.0256374	-0.0630576	1.25213	-0.024711
